<?xml version="1.0" standalone="no"?>
<!DOCTYPE svg PUBLIC "-//W3C//DTD SVG 20010904//EN"
 "http://www.w3.org/TR/2001/REC-SVG-20010904/DTD/svg10.dtd">
<svg version="1.0" xmlns="http://www.w3.org/2000/svg"
 width="370.000000pt" height="560.000000pt" viewBox="0 0 370.000000 560.000000"
 preserveAspectRatio="xMidYMid meet">
<metadata>
Created by potrace 1.15, written by Peter Selinger 2001-2017
</metadata>
<g transform="translate(0.000000,560.000000) scale(0.100000,-0.100000)"
fill="#000000" stroke="none">
<path d="M1960 5565 c0 -9 11 -32 23 -53 27 -42 39 -82 26 -82 -5 0 -9 5 -9
10 0 6 -6 10 -13 10 -8 0 -37 25 -66 55 -46 48 -91 71 -91 47 0 -4 20 -37 45
-72 25 -35 45 -67 45 -71 0 -3 -21 -4 -47 -1 -43 5 -46 4 -41 -16 4 -13 -1
-27 -13 -38 -15 -13 -24 -14 -50 -5 -89 31 -157 1 -232 -102 -29 -39 -61 -92
-72 -117 -24 -55 -82 -166 -106 -201 -13 -18 -34 -29 -73 -39 -49 -11 -58 -11
-80 4 -36 23 -48 20 -44 -11 3 -23 -2 -29 -30 -37 -27 -7 -40 -5 -70 11 -51
28 -92 37 -92 20 0 -7 5 -18 12 -25 9 -9 -7 -12 -74 -12 -48 0 -90 5 -93 10
-3 6 -19 10 -36 10 -25 0 -29 -4 -29 -28 0 -24 -5 -29 -42 -39 -24 -7 -86 -15
-138 -18 -52 -4 -122 -12 -155 -18 l-60 -12 -40 -78 c-22 -42 -45 -77 -51 -77
-21 0 -139 -112 -158 -149 l-18 -38 54 -84 c30 -46 62 -90 70 -97 14 -12 28
-116 32 -247 1 -20 7 -31 19 -33 13 -3 17 4 17 32 0 19 5 38 10 41 6 3 10 21
10 38 0 18 4 38 8 45 13 20 40 -16 44 -58 2 -27 8 -36 25 -38 46 -7 48 -19 48
-299 0 -144 3 -263 8 -263 4 0 7 9 7 20 0 12 9 38 20 60 11 22 20 53 20 69 0
17 5 61 10 98 6 38 14 92 18 122 l7 53 45 -87 c91 -174 84 -152 60 -191 -17
-30 -20 -52 -20 -146 0 -157 -39 -800 -50 -813 -12 -15 -20 -129 -26 -407 -5
-243 -5 -246 15 -253 12 -3 21 -13 21 -21 0 -8 5 -14 11 -14 7 0 10 -41 8
-129 -3 -115 -1 -132 15 -150 23 -26 35 -26 42 -3 18 53 80 172 90 172 7 0 17
12 22 28 l9 27 7 -32 c5 -22 2 -42 -12 -70 -11 -21 -45 -114 -76 -206 -66
-198 -113 -316 -166 -412 -21 -38 -42 -86 -48 -105 -9 -30 -36 -532 -33 -627
0 -23 -4 -33 -14 -33 -8 0 -15 -6 -15 -14 0 -15 -21 -26 -50 -26 -10 0 -20
-10 -24 -23 -3 -12 -19 -38 -36 -57 -28 -31 -30 -39 -30 -112 0 -70 2 -79 23
-92 15 -10 86 -18 235 -26 307 -18 361 -17 372 0 12 19 13 205 2 228 -5 9 -6
28 -2 42 5 22 8 18 19 -27 7 -28 21 -59 31 -68 17 -15 18 -12 23 72 33 571 36
599 55 596 7 -2 12 4 12 12 0 10 16 -1 40 -26 24 -25 44 -39 49 -33 5 5 21 47
36 94 32 100 41 112 50 72 3 -16 15 -38 26 -48 19 -17 20 -26 13 -126 -4 -65
-3 -108 3 -108 13 0 48 165 78 365 14 94 32 197 40 230 12 46 44 378 45 465 0
17 77 67 152 99 l48 20 -7 -157 c-3 -86 -7 -159 -9 -160 -1 -2 -20 -6 -42 -9
l-40 -5 -1 -138 c0 -134 0 -137 23 -148 21 -9 23 -19 29 -107 10 -149 28 -165
187 -165 l77 0 7 41 c4 23 4 67 0 99 -7 67 5 101 35 93 23 -6 26 7 38 162 9
120 8 147 -9 160 -10 7 -12 28 -8 77 l5 67 77 -72 78 -72 11 -126 c10 -124 50
-353 62 -366 13 -12 19 6 28 69 4 35 11 77 15 93 l8 30 8 -40 c10 -47 24 -175
33 -298 6 -74 9 -87 24 -87 30 0 36 -140 11 -268 -23 -117 -36 -258 -27 -294
5 -20 17 -27 58 -36 28 -7 83 -12 123 -12 67 0 107 -7 161 -30 40 -17 203 -31
300 -26 55 2 111 5 124 5 l24 1 -6 95 c-6 94 -7 95 -46 130 -117 106 -162 130
-188 104 -20 -20 -58 -1 -123 59 l-63 58 -1 126 c-1 89 3 131 12 139 10 11 12
8 12 -13 0 -33 16 -45 23 -18 4 15 14 20 41 20 l37 0 -4 257 c-3 142 -5 263
-6 268 -1 6 5 35 14 65 9 30 18 83 22 117 l6 62 -81 78 c-59 57 -90 96 -113
143 -17 36 -47 86 -65 111 -18 25 -65 99 -104 165 -65 109 -69 120 -53 131 9
7 27 13 40 13 16 0 27 8 33 26 17 45 11 62 -44 124 -88 98 -130 180 -156 300
-12 58 -27 119 -34 135 -21 50 -4 129 63 295 57 140 68 160 114 203 29 27 75
60 102 74 28 14 57 32 66 39 14 13 17 1 27 -128 6 -79 14 -209 18 -290 5 -107
10 -151 20 -159 8 -6 14 -7 14 -2 0 30 42 200 60 242 16 36 31 54 56 66 18 8
36 20 39 25 15 24 22 5 28 -66 7 -78 -2 -114 -27 -114 -23 0 -26 -26 -19 -193
l6 -162 -34 -10 -34 -10 -8 -95 c-4 -52 -6 -143 -5 -202 l3 -107 42 -43 41
-43 4 -160 c3 -88 8 -168 12 -177 10 -22 42 -23 89 -3 20 8 46 14 59 12 20 -2
23 4 30 43 3 25 7 96 7 158 l1 114 38 -7 39 -6 6 92 c8 111 7 323 -2 362 -4
17 -18 33 -39 45 l-34 17 -4 320 c-6 409 -6 429 10 495 l12 55 35 -142 c35
-146 53 -176 64 -105 3 20 10 62 15 92 5 30 12 82 16 114 7 65 9 65 54 -3 16
-24 38 -28 290 -55 144 -16 141 -17 161 73 11 47 11 57 -4 83 -9 16 -17 48
-17 71 0 23 -9 114 -20 202 -15 120 -25 163 -37 170 -8 6 -34 25 -56 43 -40
33 -188 108 -262 133 -44 15 -85 46 -85 65 0 7 -9 16 -20 19 -11 3 -20 10 -20
16 0 5 -44 55 -97 111 -149 156 -138 139 -114 187 25 48 27 88 6 138 -8 19
-15 45 -15 56 0 33 -78 254 -119 337 -20 41 -35 83 -33 92 6 30 -40 50 -110
47 -35 -1 -74 1 -87 6 -22 7 -23 10 -17 66 6 50 4 60 -10 66 -20 7 -43 -19
-51 -59 l-5 -27 -39 19 c-38 20 -38 20 -41 87 -3 60 -5 68 -23 68 -17 0 -22
-10 -30 -58 -7 -39 -13 -55 -20 -48 -5 5 -38 14 -73 20 -35 6 -74 19 -89 30
-14 12 -32 21 -39 21 -7 0 -29 20 -50 45 -37 45 -64 58 -64 30z m10 -300 c7
-8 16 -13 20 -10 4 2 35 -7 69 -22 42 -18 58 -30 51 -37 -5 -5 -10 -25 -10
-44 0 -26 -3 -32 -12 -25 -7 6 -26 13 -43 17 -38 10 -55 24 -55 46 0 10 -7 21
-16 24 -13 5 -15 1 -10 -19 5 -19 3 -25 -10 -25 -10 0 -14 3 -11 6 4 4 -3 20
-14 35 -13 18 -18 36 -14 49 7 24 37 26 55 5z m21 -159 c56 -12 169 -59 169
-70 0 -2 -11 -1 -25 2 -28 5 -45 -22 -26 -41 19 -19 12 -27 -15 -17 -14 6 -35
10 -48 10 -14 0 -28 9 -35 24 -15 26 -57 53 -68 42 -4 -3 1 -20 11 -37 18 -30
18 -31 -1 -25 -13 4 -27 -2 -43 -19 -18 -19 -26 -22 -33 -13 -7 10 -10 10 -14
1 -3 -9 -10 -9 -28 3 -33 21 -37 40 -19 76 12 24 18 28 25 17 7 -11 9 -11 9 3
0 17 45 58 64 58 6 0 41 -7 77 -14z m-281 -126 c0 -6 11 -8 25 -4 23 6 25 4
25 -29 0 -22 -6 -37 -15 -41 -11 -4 -14 -13 -9 -31 5 -19 2 -25 -10 -25 -35 0
-15 -38 39 -74 30 -20 59 -36 64 -36 13 0 22 -30 16 -50 -3 -9 -16 -22 -29
-29 -29 -16 -55 -2 -82 43 -10 17 -24 37 -31 44 -28 28 -61 99 -67 143 -6 37
-3 50 14 72 21 26 60 37 60 17z m337 -140 c7 -25 19 -26 32 -2 9 15 10 15 11
-5 0 -26 17 -30 34 -9 6 8 21 17 33 21 18 5 22 3 17 -9 -7 -17 11 -22 21 -6
17 28 131 -16 179 -69 24 -27 44 -27 48 -1 3 19 5 19 41 -10 20 -17 37 -28 37
-25 0 4 7 2 15 -5 15 -12 21 -61 9 -73 -4 -4 -23 7 -42 25 -77 66 -235 121
-289 99 -20 -8 -38 -8 -63 -1 -53 15 -100 13 -100 -5 0 -8 8 -15 17 -15 9 0
47 -10 84 -22 66 -21 69 -21 88 -4 31 28 42 12 25 -36 -7 -22 -14 -55 -14 -72
l0 -32 -117 4 c-70 2 -122 9 -129 16 -6 6 -19 31 -28 56 -13 33 -15 45 -6 48
19 7 70 65 70 81 0 5 6 12 13 15 10 5 10 7 0 12 -16 7 -17 44 -2 44 6 0 13 -9
16 -20z m-707 -19 c0 -5 10 -7 23 -3 18 4 20 3 11 -9 -16 -20 -14 -51 3 -45
24 10 13 -11 -12 -22 -17 -8 -25 -20 -25 -36 0 -30 -11 -39 -85 -64 -33 -11
-76 -27 -96 -36 -35 -15 -37 -14 -42 4 -8 32 -46 25 -58 -10 -11 -30 -28 -41
-30 -17 0 6 -3 21 -5 32 -2 11 -6 29 -7 40 -2 11 -9 30 -15 42 -7 12 -12 24
-12 26 0 2 25 10 56 17 44 11 60 11 75 2 17 -11 21 -9 28 12 7 17 20 26 47 30
32 7 40 4 68 -23 18 -17 37 -31 44 -31 18 0 15 41 -5 62 -15 17 -15 20 -3 28
19 12 40 13 40 1z m-467 -101 c-1 -25 -6 -250 -12 -500 -5 -250 -10 -456 -10
-456 -1 -1 -10 -4 -21 -7 -19 -5 -20 -14 -20 -156 0 -131 -2 -151 -17 -160
-16 -8 -37 -72 -50 -148 -5 -30 -9 -33 -39 -33 l-34 0 0 73 c0 39 5 90 10 112
13 50 27 188 39 375 18 270 20 311 37 718 6 154 9 174 25 183 11 5 19 16 19
24 0 15 23 24 55 22 17 -2 20 -8 18 -47z m-165 -67 c-3 -68 -3 -68 -41 -86
-41 -19 -162 -47 -205 -47 -29 0 -60 34 -42 45 17 10 11 23 -22 54 l-33 31 21
20 c16 16 41 23 114 31 51 5 95 7 97 5 2 -2 -18 -20 -44 -39 -27 -19 -57 -44
-67 -55 -17 -20 -17 -21 2 -31 15 -8 28 -6 56 8 53 28 123 82 137 109 21 39
30 24 27 -45z m1722 10 c14 -9 37 -27 52 -40 22 -21 25 -29 18 -54 -7 -23 -5
-29 6 -29 11 0 13 -6 9 -20 -4 -12 0 -26 9 -36 18 -17 22 -39 6 -29 -5 3 -10
-1 -10 -10 0 -9 5 -13 10 -10 6 3 10 -1 10 -9 0 -22 -19 -20 -27 2 -8 22 -94
112 -108 112 -6 0 -10 28 -10 70 0 39 2 70 5 70 3 0 17 -7 30 -17z m-213 -308
c-12 -138 -37 -217 -73 -234 -35 -16 -38 -15 -57 19 -10 16 -21 29 -25 29 -21
-3 -33 3 -30 15 2 7 -8 23 -22 34 -33 27 -20 38 21 18 60 -30 64 -24 83 109 2
13 12 21 29 23 18 2 28 12 36 33 6 17 17 29 27 29 15 0 16 -9 11 -75z m790
-47 c4 -7 6 -21 5 -31 -2 -10 2 -25 9 -33 18 -22 112 -67 194 -94 61 -20 141
-54 154 -66 3 -2 -4 -10 -13 -17 -17 -13 -17 -15 9 -35 39 -31 27 -36 -23 -11
-34 17 -45 19 -57 9 -8 -7 -15 -19 -15 -27 0 -9 -6 -13 -14 -10 -8 3 -32 9
-53 13 -45 8 -89 29 -100 48 -11 18 -106 48 -126 40 -15 -5 -17 6 -17 110 0
108 1 116 19 116 11 0 23 -6 28 -12z m-1972 -135 c-4 -16 -8 -71 -10 -123 -2
-52 -7 -111 -10 -130 -3 -19 -9 -94 -14 -167 -7 -111 -12 -136 -30 -159 -27
-34 -27 -44 1 -36 20 5 21 3 14 -44 -4 -27 -7 -71 -6 -98 2 -77 -8 -106 -36
-106 -13 0 -24 -5 -24 -11 0 -8 -5 -7 -16 1 -13 12 -15 7 -13 -38 3 -52 3 -52
25 -37 45 29 47 23 40 -107 -4 -68 -11 -163 -17 -213 -5 -49 -10 -181 -10
-293 1 -114 -3 -201 -8 -198 -15 10 -29 -18 -20 -39 4 -12 8 -14 8 -6 1 22 17
1 25 -33 6 -25 5 -28 -7 -17 -10 8 -17 9 -22 1 -9 -15 -25 -12 -19 4 3 8 13
17 22 19 13 4 12 5 -4 6 -11 0 -29 8 -40 16 -17 13 -17 14 -1 15 18 0 23 15 8
24 -5 3 -16 -5 -25 -19 -10 -15 -12 -26 -6 -30 19 -12 -1 -25 -21 -15 -16 9
-19 7 -19 -15 0 -14 -4 -25 -10 -25 -5 0 -10 -11 -10 -25 0 -21 -5 -25 -30
-25 -32 0 -60 -33 -39 -46 20 -12 -6 -24 -36 -15 -26 7 -30 12 -31 47 -4 100
-2 96 -24 84 -19 -10 -20 -8 -20 55 0 46 3 64 11 59 8 -5 8 -1 0 14 -14 26
-14 45 0 40 6 -2 10 -7 9 -12 -1 -5 4 -12 11 -17 10 -6 10 -13 2 -32 -6 -13
-8 -28 -5 -33 10 -13 32 -16 32 -4 0 5 -4 10 -10 10 -5 0 -10 5 -10 10 0 6 7
10 15 10 14 0 14 3 0 24 -11 16 -13 26 -6 31 6 3 11 1 11 -4 0 -6 5 -11 11
-11 6 0 9 9 6 20 -3 11 -1 18 3 15 5 -3 11 -1 15 5 13 21 -28 24 -45 3 -13
-16 -19 -18 -32 -9 -16 12 -14 66 2 66 9 0 17 56 24 170 3 35 9 66 15 68 6 2
11 15 11 28 0 16 5 24 18 23 10 0 12 -3 5 -6 -18 -7 -16 -20 4 -27 10 -4 15
-4 11 -1 -7 7 27 45 41 45 4 0 7 -20 6 -45 -2 -53 18 -90 35 -65 13 20 37 130
46 207 6 59 5 62 -14 56 -11 -3 -26 -17 -32 -33 -9 -22 -17 -27 -41 -25 -16 1
-32 4 -35 7 -4 5 23 101 48 169 5 15 20 32 34 39 28 15 33 32 7 24 -15 -5 -15
-4 -4 4 17 12 24 42 10 42 -12 0 -12 37 1 45 6 3 10 -3 10 -14 0 -12 6 -21 14
-21 14 0 19 34 35 230 4 52 8 86 9 75 3 -26 19 -51 27 -43 4 4 11 33 15 65 4
32 19 119 33 193 25 131 48 306 55 408 1 13 9 22 18 22 13 0 15 -6 9 -27z
m1662 -317 c4 -109 2 -151 -7 -160 -9 -8 -14 -8 -17 2 -4 10 -8 10 -21 0 -14
-12 -15 -9 -8 27 3 22 10 128 13 235 l7 195 14 -75 c8 -41 16 -142 19 -224z
m598 -25 c55 -38 109 -77 120 -84 19 -14 18 -15 -12 -31 -59 -30 -88 -22 -164
45 -74 66 -119 132 -119 174 l0 26 38 -29 c20 -17 82 -62 137 -101z m-1819
-363 c41 -8 68 -20 87 -40 16 -15 33 -25 39 -22 6 4 8 2 4 -4 -11 -18 16 -26
29 -8 12 15 13 15 26 -1 9 -10 9 -14 2 -10 -7 4 -30 -4 -52 -18 -23 -14 -45
-25 -51 -25 -5 0 -10 -5 -10 -11 0 -5 5 -7 11 -3 8 4 9 0 4 -15 -8 -26 10 -28
25 -3 9 13 9 10 4 -18 -8 -43 -10 -46 -27 -32 -8 7 -17 8 -21 4 -4 -4 -5 7 -2
23 3 17 3 24 0 18 -3 -7 -12 -13 -20 -13 -9 0 -12 -5 -8 -12 5 -10 4 -10 -7 0
-10 9 -11 17 -3 30 9 14 7 21 -12 39 -13 12 -33 20 -44 18 -13 -2 -20 2 -20
11 0 8 -6 14 -12 13 -25 -4 -48 13 -48 35 0 29 10 39 26 25 9 -8 11 -5 7 10
-6 24 -5 25 73 9z m1398 -217 c3 -5 -6 -16 -20 -25 l-25 -17 26 -31 c22 -26
25 -39 23 -82 -3 -45 -5 -51 -23 -48 -19 4 -19 3 3 -20 12 -13 22 -34 22 -45
0 -42 -13 -83 -26 -83 -12 0 -12 -4 -2 -20 14 -21 12 -25 -18 -34 -20 -6 -20
-3 -21 196 0 139 3 205 11 210 15 11 44 10 50 -1z m-1514 -275 c69 -13 158
-28 198 -31 79 -8 77 -6 84 -87 4 -36 4 -36 -22 -23 -14 7 -49 29 -78 49 -55
37 -127 64 -139 53 -9 -10 12 -47 60 -104 l40 -48 -27 -3 c-35 -4 -151 25
-196 49 -19 10 -48 32 -64 49 -16 16 -32 30 -36 30 -4 0 -7 15 -8 34 -1 25 4
36 21 44 30 15 27 15 167 -12z m454 -91 c37 -33 46 -50 56 -99 10 -47 9 -60
-1 -67 -7 -4 -17 -5 -22 -2 -11 7 -57 -17 -57 -29 0 -5 4 -6 10 -3 5 3 18 1
27 -4 11 -6 13 -11 5 -11 -10 0 -9 -7 3 -29 18 -37 51 -60 73 -54 13 3 22 -7
35 -44 9 -26 17 -53 17 -58 0 -11 -98 -10 -167 1 -29 4 -32 9 -42 57 -5 29
-15 111 -21 182 -6 72 -13 154 -16 184 l-6 53 31 -18 c17 -10 51 -37 75 -59z
m-414 -205 c41 -27 90 -53 108 -56 24 -5 30 -9 20 -15 -7 -5 -14 -13 -14 -19
-3 -23 -5 -24 -19 -6 -12 15 -15 16 -15 5 0 -17 35 -51 64 -62 9 -4 15 -11 12
-16 -7 -11 22 -23 35 -15 5 3 7 10 4 15 -4 5 -1 9 5 9 7 0 9 -7 6 -16 -3 -8 1
-22 10 -31 8 -8 12 -18 9 -22 -4 -3 -12 1 -18 9 -13 17 -47 15 -47 -2 0 -6 -7
-5 -17 3 -14 12 -16 12 -8 0 5 -10 4 -12 -4 -7 -6 4 -14 0 -17 -8 -8 -22 -21
-20 -35 5 -10 20 -9 21 13 16 17 -5 27 -1 36 13 7 11 8 20 3 20 -5 0 -11 9
-14 20 -6 22 -41 28 -53 8 -4 -7 -3 -8 5 -4 7 4 19 5 27 2 12 -5 12 -9 2 -26
-7 -11 -19 -18 -27 -15 -10 4 -12 -1 -8 -17 4 -12 2 -27 -2 -32 -5 -6 -10 -20
-12 -30 -3 -15 -15 -20 -48 -23 -59 -6 -87 2 -113 32 -11 13 -25 22 -30 19 -4
-3 -8 0 -8 5 0 6 -7 11 -15 11 -8 0 -15 4 -15 9 0 5 -9 7 -20 4 -11 -3 -20 0
-20 6 0 6 7 8 17 4 12 -5 15 -2 10 10 -4 12 -2 14 10 10 8 -3 18 -1 22 5 5 8
31 4 89 -15 57 -19 85 -24 92 -17 8 8 -10 19 -57 39 -109 45 -153 68 -147 77
3 4 -4 8 -15 8 -12 0 -21 7 -21 15 0 7 -8 19 -17 24 -24 14 -7 14 19 0 11 -6
34 -15 51 -20 l30 -8 -23 24 c-13 14 -20 31 -17 39 7 18 33 22 39 6 3 -9 39
-13 82 -8 19 1 19 2 0 17 -21 17 -38 51 -26 51 4 0 41 -23 82 -50z m723 -16
c9 -25 14 -50 11 -55 -3 -5 -1 -9 4 -9 5 0 15 -15 23 -32 7 -18 23 -46 36 -61
23 -29 31 -53 13 -42 -5 3 -10 2 -10 -3 0 -8 -72 -32 -94 -32 -7 0 -46 42 -46
50 0 13 49 30 56 19 6 -11 33 18 33 36 0 6 -6 1 -14 -9 -15 -19 -15 -19 -15 2
0 12 -3 21 -7 21 -19 -3 -27 2 -15 10 9 5 11 17 7 34 -4 15 -11 24 -16 21 -5
-3 -9 0 -9 5 0 6 -15 11 -32 11 -37 1 -68 20 -68 42 0 12 40 25 115 36 6 1 18
-19 28 -44z m-489 -279 c-4 -11 -2 -13 9 -10 29 12 26 -27 -7 -114 -48 -121
-57 -139 -72 -145 -19 -7 -127 23 -136 38 -4 7 -40 25 -80 41 -40 16 -77 35
-81 42 -5 8 -12 11 -18 8 -15 -10 -10 11 6 25 8 7 12 17 8 24 -9 14 28 -14 43
-33 6 -8 17 -16 25 -18 8 -1 26 -5 42 -9 18 -4 27 -2 27 6 0 7 -7 10 -15 6 -8
-3 -15 -4 -15 -2 0 3 -3 13 -6 23 -5 15 -4 15 5 3 9 -12 11 -11 11 8 0 19 2
21 14 10 7 -7 12 -18 9 -24 -2 -5 5 -18 16 -28 14 -13 28 -16 55 -10 36 6 36
7 21 30 -25 39 -15 49 92 95 17 7 34 21 36 31 3 10 8 18 11 18 3 0 3 -7 0 -15z
m881 -675 c4 -11 12 -19 18 -18 7 1 29 -13 49 -32 l37 -34 -32 -14 c-24 -10
-28 -15 -18 -22 11 -6 8 -14 -15 -34 -16 -14 -34 -26 -40 -26 -17 0 -42 -33
-46 -60 -2 -14 -9 -24 -16 -22 -6 1 -12 -2 -12 -7 0 -17 -45 -6 -50 13 -9 33
1 86 16 86 8 0 14 5 14 11 0 6 -7 8 -16 5 -11 -4 -14 -1 -10 12 49 169 45 162
81 162 25 0 35 -5 40 -20z m-1598 -108 c6 -4 15 -21 18 -37 8 -30 51 -85 67
-85 5 0 11 8 15 18 11 32 44 60 63 55 42 -11 34 -108 -11 -149 -24 -21 -24
-31 -1 -37 13 -4 11 -5 -5 -6 -15 -1 -23 5 -24 17 0 13 -2 12 -9 -5 -5 -13
-14 -23 -20 -23 -7 0 -7 7 1 23 11 19 11 21 -3 9 -14 -11 -24 -9 -62 9 -25 11
-46 25 -46 30 0 4 -18 14 -40 20 -32 10 -42 18 -48 43 -9 35 3 55 30 48 13 -3
18 1 18 17 0 25 21 61 35 61 5 0 15 -4 22 -8z"/>
<path d="M756 2505 c-66 -156 -75 -253 -18 -180 28 36 112 237 112 269 0 20
-5 26 -23 26 -20 0 -30 -16 -71 -115z"/>
</g>
</svg>
